<mxfile host="65bd71144e">
    <diagram id="AvRTIfweOliQbTPiXyuM" name="Pagina-1">
        <mxGraphModel dx="643" dy="916" grid="1" gridSize="10" guides="1" tooltips="1" connect="1" arrows="1" fold="1" page="1" pageScale="1" pageWidth="827" pageHeight="1169" math="0" shadow="0">
            <root>
                <mxCell id="0"/>
                <mxCell id="1" parent="0"/>
                <mxCell id="2" value="&lt;p style=&quot;margin: 4px 0px 0px; text-align: center; font-size: 30px;&quot;&gt;&lt;b style=&quot;&quot;&gt;&lt;font style=&quot;font-size: 30px;&quot;&gt;slicer&lt;/font&gt;&lt;/b&gt;&lt;/p&gt;&lt;hr style=&quot;font-size: 30px;&quot; size=&quot;1&quot;&gt;&lt;div style=&quot;height: 2px; font-size: 30px;&quot;&gt;&lt;/div&gt;" style="verticalAlign=top;align=left;overflow=fill;fontSize=12;fontFamily=Courier New;html=1;fillColor=#F5F5F5;" parent="1" vertex="1">
                    <mxGeometry x="287" y="90" width="770" height="570" as="geometry"/>
                </mxCell>
                <mxCell id="13" value="" style="shape=display;whiteSpace=wrap;html=1;fontFamily=Courier New;fontSize=30;fillColor=default;" parent="1" vertex="1">
                    <mxGeometry x="277" y="190" width="20" height="10" as="geometry"/>
                </mxCell>
                <mxCell id="15" value="" style="shape=display;whiteSpace=wrap;html=1;fontFamily=Courier New;fontSize=30;fillColor=default;" parent="1" vertex="1">
                    <mxGeometry x="277" y="210" width="20" height="10" as="geometry"/>
                </mxCell>
                <mxCell id="16" style="edgeStyle=elbowEdgeStyle;html=1;fontFamily=Courier New;fontSize=10;endArrow=none;endFill=0;rounded=0;" parent="1" source="17" edge="1">
                    <mxGeometry relative="1" as="geometry">
                        <mxPoint x="397" y="235" as="targetPoint"/>
                    </mxGeometry>
                </mxCell>
                <mxCell id="17" value="" style="shape=display;whiteSpace=wrap;html=1;fontFamily=Courier New;fontSize=30;fillColor=default;" parent="1" vertex="1">
                    <mxGeometry x="277" y="230" width="20" height="10" as="geometry"/>
                </mxCell>
                <mxCell id="22" value="" style="endArrow=none;html=1;fontFamily=Courier New;fontSize=30;entryX=0;entryY=0.5;entryDx=0;entryDy=0;entryPerimeter=0;" parent="1" target="13" edge="1">
                    <mxGeometry width="50" height="50" relative="1" as="geometry">
                        <mxPoint x="150" y="195" as="sourcePoint"/>
                        <mxPoint x="247" y="180" as="targetPoint"/>
                    </mxGeometry>
                </mxCell>
                <mxCell id="23" value="&lt;font style=&quot;font-size: 10px;&quot;&gt;valid_i&lt;/font&gt;" style="edgeLabel;html=1;align=center;verticalAlign=middle;resizable=0;points=[];fontSize=10;fontFamily=Courier New;labelBackgroundColor=none;" parent="22" vertex="1" connectable="0">
                    <mxGeometry x="0.3817" relative="1" as="geometry">
                        <mxPoint x="-15" y="-8" as="offset"/>
                    </mxGeometry>
                </mxCell>
                <mxCell id="24" value="" style="endArrow=none;html=1;fontFamily=Courier New;fontSize=30;entryX=0;entryY=0.5;entryDx=0;entryDy=0;entryPerimeter=0;" parent="1" edge="1">
                    <mxGeometry width="50" height="50" relative="1" as="geometry">
                        <mxPoint x="150" y="215" as="sourcePoint"/>
                        <mxPoint x="277" y="214.7399999999999" as="targetPoint"/>
                    </mxGeometry>
                </mxCell>
                <mxCell id="25" value="fifo_full_i" style="edgeLabel;html=1;align=center;verticalAlign=middle;resizable=0;points=[];fontSize=10;fontFamily=Courier New;labelBackgroundColor=none;" parent="24" vertex="1" connectable="0">
                    <mxGeometry x="-0.3938" y="1" relative="1" as="geometry">
                        <mxPoint x="27" y="-7" as="offset"/>
                    </mxGeometry>
                </mxCell>
                <mxCell id="26" value="" style="endArrow=none;html=1;fontFamily=Courier New;fontSize=30;entryX=0;entryY=0.5;entryDx=0;entryDy=0;entryPerimeter=0;" parent="1" edge="1">
                    <mxGeometry width="50" height="50" relative="1" as="geometry">
                        <mxPoint x="150" y="235" as="sourcePoint"/>
                        <mxPoint x="277" y="234.7399999999999" as="targetPoint"/>
                    </mxGeometry>
                </mxCell>
                <mxCell id="27" value="encap_fifo_entry_i" style="edgeLabel;html=1;align=center;verticalAlign=middle;resizable=0;points=[];fontSize=10;fontFamily=Courier New;labelBackgroundColor=none;" parent="26" vertex="1" connectable="0">
                    <mxGeometry x="-0.3411" y="1" relative="1" as="geometry">
                        <mxPoint x="24" y="-7" as="offset"/>
                    </mxGeometry>
                </mxCell>
                <mxCell id="33" value="" style="shape=display;whiteSpace=wrap;html=1;fontFamily=Courier New;fontSize=30;fillColor=default;rotation=-180;" parent="1" vertex="1">
                    <mxGeometry x="1047" y="191" width="20" height="10" as="geometry"/>
                </mxCell>
                <mxCell id="34" style="edgeStyle=orthogonalEdgeStyle;rounded=0;html=1;strokeWidth=1;fontFamily=Courier New;fontSize=10;endArrow=none;endFill=0;exitX=1;exitY=0.5;exitDx=0;exitDy=0;exitPerimeter=0;jumpStyle=arc;" parent="1" source="35" edge="1">
                    <mxGeometry relative="1" as="geometry">
                        <mxPoint x="667" y="230" as="targetPoint"/>
                        <mxPoint x="1087" y="170" as="sourcePoint"/>
                        <Array as="points">
                            <mxPoint x="1007" y="216"/>
                            <mxPoint x="1007" y="290"/>
                            <mxPoint x="667" y="290"/>
                        </Array>
                    </mxGeometry>
                </mxCell>
                <mxCell id="35" value="" style="shape=display;whiteSpace=wrap;html=1;fontFamily=Courier New;fontSize=30;fillColor=default;rotation=-180;" parent="1" vertex="1">
                    <mxGeometry x="1047" y="211" width="20" height="10" as="geometry"/>
                </mxCell>
                <mxCell id="37" value="" style="shape=display;whiteSpace=wrap;html=1;fontFamily=Courier New;fontSize=30;fillColor=default;rotation=-180;" parent="1" vertex="1">
                    <mxGeometry x="1047" y="231" width="20" height="10" as="geometry"/>
                </mxCell>
                <mxCell id="39" value="" style="shape=display;whiteSpace=wrap;html=1;fontFamily=Courier New;fontSize=30;fillColor=default;rotation=-180;" parent="1" vertex="1">
                    <mxGeometry x="1047" y="251" width="20" height="10" as="geometry"/>
                </mxCell>
                <mxCell id="42" value="" style="endArrow=none;html=1;fontFamily=Courier New;fontSize=30;entryX=0;entryY=0.5;entryDx=0;entryDy=0;entryPerimeter=0;" parent="1" target="33" edge="1">
                    <mxGeometry width="50" height="50" relative="1" as="geometry">
                        <mxPoint x="1167" y="195.9999999999999" as="sourcePoint"/>
                        <mxPoint x="1017" y="181" as="targetPoint"/>
                    </mxGeometry>
                </mxCell>
                <mxCell id="43" value="&lt;font style=&quot;font-size: 10px;&quot;&gt;valid_o&lt;/font&gt;" style="edgeLabel;html=1;align=center;verticalAlign=middle;resizable=0;points=[];fontSize=10;fontFamily=Courier New;labelBackgroundColor=none;" parent="42" vertex="1" connectable="0">
                    <mxGeometry x="0.3817" relative="1" as="geometry">
                        <mxPoint x="19" y="-8" as="offset"/>
                    </mxGeometry>
                </mxCell>
                <mxCell id="44" value="" style="endArrow=none;html=1;fontFamily=Courier New;fontSize=30;entryX=0;entryY=0.5;entryDx=0;entryDy=0;entryPerimeter=0;" parent="1" target="35" edge="1">
                    <mxGeometry width="50" height="50" relative="1" as="geometry">
                        <mxPoint x="1167" y="215.9999999999999" as="sourcePoint"/>
                        <mxPoint x="1047" y="215.74" as="targetPoint"/>
                    </mxGeometry>
                </mxCell>
                <mxCell id="45" value="slice_o" style="edgeLabel;html=1;align=center;verticalAlign=middle;resizable=0;points=[];fontSize=10;fontFamily=Courier New;labelBackgroundColor=none;" parent="44" vertex="1" connectable="0">
                    <mxGeometry x="-0.3938" y="1" relative="1" as="geometry">
                        <mxPoint x="-20" y="-9" as="offset"/>
                    </mxGeometry>
                </mxCell>
                <mxCell id="46" value="" style="endArrow=none;html=1;fontFamily=Courier New;fontSize=30;entryX=0;entryY=0.5;entryDx=0;entryDy=0;entryPerimeter=0;" parent="1" target="37" edge="1">
                    <mxGeometry width="50" height="50" relative="1" as="geometry">
                        <mxPoint x="1167" y="235.9999999999999" as="sourcePoint"/>
                        <mxPoint x="1047" y="235.74" as="targetPoint"/>
                    </mxGeometry>
                </mxCell>
                <mxCell id="47" value="valid_bytes_o" style="edgeLabel;html=1;align=center;verticalAlign=middle;resizable=0;points=[];fontSize=10;fontFamily=Courier New;labelBackgroundColor=none;" parent="46" vertex="1" connectable="0">
                    <mxGeometry x="-0.3411" y="1" relative="1" as="geometry">
                        <mxPoint x="-17" y="-9" as="offset"/>
                    </mxGeometry>
                </mxCell>
                <mxCell id="48" value="" style="endArrow=none;html=1;fontFamily=Courier New;fontSize=30;exitX=0;exitY=0.5;exitDx=0;exitDy=0;exitPerimeter=0;" parent="1" source="39" edge="1">
                    <mxGeometry width="50" height="50" relative="1" as="geometry">
                        <mxPoint x="1087" y="256.06" as="sourcePoint"/>
                        <mxPoint x="1167" y="256" as="targetPoint"/>
                    </mxGeometry>
                </mxCell>
                <mxCell id="49" value="fifo_pop_o" style="edgeLabel;html=1;align=center;verticalAlign=middle;resizable=0;points=[];fontSize=10;fontFamily=Courier New;labelBackgroundColor=none;" parent="48" vertex="1" connectable="0">
                    <mxGeometry x="-0.4595" y="1" relative="1" as="geometry">
                        <mxPoint x="23" y="-7" as="offset"/>
                    </mxGeometry>
                </mxCell>
                <mxCell id="54" value="" style="endArrow=none;html=1;rounded=0;fontFamily=Courier New;fontSize=10;strokeWidth=2;" parent="1" edge="1">
                    <mxGeometry width="50" height="50" relative="1" as="geometry">
                        <mxPoint x="1176" y="189" as="sourcePoint"/>
                        <mxPoint x="1176" y="259" as="targetPoint"/>
                    </mxGeometry>
                </mxCell>
                <mxCell id="55" value="to fifo" style="edgeLabel;html=1;align=center;verticalAlign=middle;resizable=0;points=[];fontSize=10;fontFamily=Courier New;" parent="54" vertex="1" connectable="0">
                    <mxGeometry x="-0.219" y="1" relative="1" as="geometry">
                        <mxPoint x="25" y="9" as="offset"/>
                    </mxGeometry>
                </mxCell>
                <mxCell id="58" value="" style="endArrow=none;html=1;rounded=0;fontFamily=Courier New;fontSize=10;strokeWidth=2;" parent="1" edge="1">
                    <mxGeometry width="50" height="50" relative="1" as="geometry">
                        <mxPoint x="140" y="240" as="sourcePoint"/>
                        <mxPoint x="140" y="190" as="targetPoint"/>
                        <Array as="points">
                            <mxPoint x="140" y="190"/>
                        </Array>
                    </mxGeometry>
                </mxCell>
                <mxCell id="59" value="from fifo" style="edgeLabel;html=1;align=center;verticalAlign=middle;resizable=0;points=[];fontSize=10;fontFamily=Courier New;" parent="58" vertex="1" connectable="0">
                    <mxGeometry x="-0.219" y="1" relative="1" as="geometry">
                        <mxPoint x="-32" y="-4" as="offset"/>
                    </mxGeometry>
                </mxCell>
                <mxCell id="65" style="edgeStyle=orthogonalEdgeStyle;html=1;entryX=0;entryY=0.25;entryDx=0;entryDy=0;entryPerimeter=0;endArrow=none;endFill=0;rounded=0;startArrow=none;" parent="1" source="131" target="64" edge="1">
                    <mxGeometry relative="1" as="geometry">
                        <mxPoint x="517" y="230" as="sourcePoint"/>
                        <Array as="points">
                            <mxPoint x="517" y="230"/>
                        </Array>
                    </mxGeometry>
                </mxCell>
                <mxCell id="133" style="edgeStyle=orthogonalEdgeStyle;rounded=0;jumpStyle=arc;html=1;exitX=0.998;exitY=0.359;exitDx=0;exitDy=0;exitPerimeter=0;entryX=0;entryY=0.75;entryDx=0;entryDy=0;entryPerimeter=0;endArrow=none;endFill=0;" parent="1" source="62" target="131" edge="1">
                    <mxGeometry relative="1" as="geometry"/>
                </mxCell>
                <mxCell id="62" value="joining logic" style="rounded=0;whiteSpace=wrap;html=1;fillColor=#B1DDF0;fontFamily=Courier New;fontSize=20;points=[[0,0,0,0,0],[0,0.15,0,0,0],[0,0.32,0,0,0],[0,0.45,0,0,0],[0,0.6,0,0,0],[0,0.75,0,0,0],[0,0.9,0,0,0],[0,1,0,0,0],[0.25,0,0,0,0],[0.25,1,0,0,0],[0.5,0,0,0,0],[0.5,1,0,0,0],[0.75,0,0,0,0],[0.75,1,0,0,0],[1,0,0,0,0],[1,0.25,0,0,0],[1,0.5,0,0,0],[1,0.75,0,0,0],[1,1,0,0,0]];" parent="1" vertex="1">
                    <mxGeometry x="367" y="197" width="120" height="120" as="geometry"/>
                </mxCell>
                <mxCell id="67" style="edgeStyle=orthogonalEdgeStyle;html=1;exitX=1;exitY=0.25;exitDx=0;exitDy=0;exitPerimeter=0;entryX=0;entryY=0.45;entryDx=0;entryDy=0;entryPerimeter=0;endArrow=none;endFill=0;rounded=0;" parent="1" source="64" target="66" edge="1">
                    <mxGeometry relative="1" as="geometry">
                        <Array as="points">
                            <mxPoint x="697" y="230"/>
                        </Array>
                    </mxGeometry>
                </mxCell>
                <mxCell id="64" value="payload_to_slice" style="verticalLabelPosition=bottom;shadow=0;dashed=0;align=center;html=1;verticalAlign=top;shape=mxgraph.electrical.logic_gates.d_type_flip-flop;fillColor=#FFF2CC;" parent="1" vertex="1">
                    <mxGeometry x="557" y="210" width="100" height="80" as="geometry"/>
                </mxCell>
                <mxCell id="68" style="edgeStyle=orthogonalEdgeStyle;html=1;exitX=1;exitY=0.5;exitDx=0;exitDy=0;exitPerimeter=0;endArrow=none;endFill=0;rounded=0;" parent="1" source="69" edge="1">
                    <mxGeometry relative="1" as="geometry">
                        <mxPoint x="557" y="230" as="targetPoint"/>
                        <Array as="points">
                            <mxPoint x="977" y="225"/>
                            <mxPoint x="977" y="180"/>
                            <mxPoint x="557" y="180"/>
                            <mxPoint x="557" y="230"/>
                        </Array>
                    </mxGeometry>
                </mxCell>
                <mxCell id="70" style="edgeStyle=orthogonalEdgeStyle;rounded=0;html=1;exitX=1;exitY=0.5;exitDx=0;exitDy=0;exitPerimeter=0;entryX=0;entryY=0.75;entryDx=0;entryDy=0;entryPerimeter=0;endArrow=none;endFill=0;" parent="1" source="66" target="69" edge="1">
                    <mxGeometry relative="1" as="geometry"/>
                </mxCell>
                <mxCell id="66" value="&amp;gt;&amp;gt; SLICE_LEN" style="rounded=0;whiteSpace=wrap;html=1;fillColor=#B1DDF0;fontFamily=Courier New;fontSize=20;points=[[0,0,0,0,0],[0,0.15,0,0,0],[0,0.32,0,0,0],[0,0.45,0,0,0],[0,0.6,0,0,0],[0,0.75,0,0,0],[0,0.9,0,0,0],[0,1,0,0,0],[0.25,0,0,0,0],[0.25,1,0,0,0],[0.5,0,0,0,0],[0.5,1,0,0,0],[0.75,0,0,0,0],[0.75,1,0,0,0],[1,0,0,0,0],[1,0.25,0,0,0],[1,0.5,0,0,0],[1,0.75,0,0,0],[1,1,0,0,0]];" parent="1" vertex="1">
                    <mxGeometry x="697" y="205" width="180" height="60" as="geometry"/>
                </mxCell>
                <mxCell id="129" style="edgeStyle=orthogonalEdgeStyle;rounded=0;jumpStyle=arc;html=1;exitX=0;exitY=0.5;exitDx=0;exitDy=0;exitPerimeter=0;endArrow=none;endFill=0;" parent="1" source="69" edge="1">
                    <mxGeometry relative="1" as="geometry">
                        <mxPoint x="657" y="340" as="targetPoint"/>
                        <Array as="points">
                            <mxPoint x="917" y="225"/>
                            <mxPoint x="917" y="320"/>
                            <mxPoint x="667" y="320"/>
                            <mxPoint x="667" y="340"/>
                        </Array>
                    </mxGeometry>
                </mxCell>
                <mxCell id="69" value="" style="shape=or;whiteSpace=wrap;html=1;fillColor=#f8cecc;strokeColor=#000000;" parent="1" vertex="1">
                    <mxGeometry x="927" y="205" width="30" height="40" as="geometry"/>
                </mxCell>
                <mxCell id="104" style="edgeStyle=orthogonalEdgeStyle;rounded=0;html=1;entryX=0;entryY=0.25;entryDx=0;entryDy=0;entryPerimeter=0;endArrow=none;endFill=0;" parent="1" source="105" target="113" edge="1">
                    <mxGeometry relative="1" as="geometry"/>
                </mxCell>
                <mxCell id="105" value="num_slices compute logic" style="rounded=0;whiteSpace=wrap;html=1;fillColor=#B1DDF0;fontFamily=Courier New;fontSize=20;points=[[0,0,0,0,0],[0,0.15,0,0,0],[0,0.32,0,0,0],[0,0.45,0,0,0],[0,0.6,0,0,0],[0,0.75,0,0,0],[0,0.9,0,0,0],[0,1,0,0,0],[0.25,0,0,0,0],[0.25,1,0,0,0],[0.5,0,0,0,0],[0.5,1,0,0,0],[0.75,0,0,0,0],[0.75,1,0,0,0],[1,0,0,0,0],[1,0.25,0,0,0],[1,0.5,0,0,0],[1,0.75,0,0,0],[1,1,0,0,0]];" parent="1" vertex="1">
                    <mxGeometry x="357" y="455" width="160" height="120" as="geometry"/>
                </mxCell>
                <mxCell id="106" style="edgeStyle=orthogonalEdgeStyle;rounded=0;html=1;exitX=1;exitY=0.5;exitDx=0;exitDy=0;exitPerimeter=0;endArrow=none;endFill=0;entryX=-0.004;entryY=0.498;entryDx=0;entryDy=0;entryPerimeter=0;" parent="1" target="110" edge="1">
                    <mxGeometry relative="1" as="geometry">
                        <mxPoint x="694" y="380" as="targetPoint"/>
                        <mxPoint x="714" y="360" as="sourcePoint"/>
                    </mxGeometry>
                </mxCell>
                <mxCell id="107" style="edgeStyle=orthogonalEdgeStyle;rounded=0;html=1;exitX=1;exitY=0.25;exitDx=0;exitDy=0;exitPerimeter=0;entryX=0;entryY=0.75;entryDx=0;entryDy=0;entryPerimeter=0;endArrow=none;endFill=0;" parent="1" source="108" edge="1">
                    <mxGeometry relative="1" as="geometry">
                        <mxPoint x="684" y="370" as="targetPoint"/>
                    </mxGeometry>
                </mxCell>
                <mxCell id="108" value="slice_index" style="verticalLabelPosition=bottom;shadow=0;dashed=0;align=center;html=1;verticalAlign=top;shape=mxgraph.electrical.logic_gates.d_type_flip-flop;fillColor=#FFF2CC;" parent="1" vertex="1">
                    <mxGeometry x="557" y="350" width="100" height="80" as="geometry"/>
                </mxCell>
                <mxCell id="109" style="edgeStyle=orthogonalEdgeStyle;rounded=0;html=1;entryX=0;entryY=0.25;entryDx=0;entryDy=0;entryPerimeter=0;endArrow=none;endFill=0;" parent="1" source="110" target="108" edge="1">
                    <mxGeometry relative="1" as="geometry">
                        <Array as="points">
                            <mxPoint x="867" y="360"/>
                            <mxPoint x="867" y="460"/>
                            <mxPoint x="537" y="460"/>
                            <mxPoint x="537" y="370"/>
                        </Array>
                    </mxGeometry>
                </mxCell>
                <mxCell id="110" value="+ 1" style="rounded=0;whiteSpace=wrap;html=1;fillColor=#B1DDF0;fontFamily=Courier New;fontSize=20;points=[[0,0,0,0,0],[0,0.15,0,0,0],[0,0.32,0,0,0],[0,0.45,0,0,0],[0,0.6,0,0,0],[0,0.75,0,0,0],[0,0.9,0,0,0],[0,1,0,0,0],[0.25,0,0,0,0],[0.25,1,0,0,0],[0.5,0,0,0,0],[0.5,1,0,0,0],[0.75,0,0,0,0],[0.75,1,0,0,0],[1,0,0,0,0],[1,0.25,0,0,0],[1,0.5,0,0,0],[1,0.75,0,0,0],[1,1,0,0,0]];" parent="1" vertex="1">
                    <mxGeometry x="747" y="330" width="80" height="60" as="geometry"/>
                </mxCell>
                <mxCell id="111" value="" style="shape=or;whiteSpace=wrap;html=1;fillColor=#f8cecc;strokeColor=#000000;" parent="1" vertex="1">
                    <mxGeometry x="684" y="340" width="30" height="40" as="geometry"/>
                </mxCell>
                <mxCell id="112" style="edgeStyle=orthogonalEdgeStyle;rounded=0;html=1;exitX=1;exitY=0.25;exitDx=0;exitDy=0;exitPerimeter=0;entryX=0;entryY=0.75;entryDx=0;entryDy=0;entryPerimeter=0;endArrow=none;endFill=0;" parent="1" source="113" target="116" edge="1">
                    <mxGeometry relative="1" as="geometry"/>
                </mxCell>
                <mxCell id="113" value="num_slices" style="verticalLabelPosition=bottom;shadow=0;dashed=0;align=center;html=1;verticalAlign=top;shape=mxgraph.electrical.logic_gates.d_type_flip-flop;fillColor=#FFF2CC;" parent="1" vertex="1">
                    <mxGeometry x="557" y="495" width="100" height="80" as="geometry"/>
                </mxCell>
                <mxCell id="114" style="edgeStyle=orthogonalEdgeStyle;rounded=0;html=1;exitX=0;exitY=0.32;exitDx=0;exitDy=0;exitPerimeter=0;endArrow=none;endFill=0;" parent="1" source="116" edge="1">
                    <mxGeometry relative="1" as="geometry">
                        <mxPoint x="667" y="370" as="targetPoint"/>
                        <Array as="points">
                            <mxPoint x="667" y="489"/>
                            <mxPoint x="667" y="370"/>
                        </Array>
                    </mxGeometry>
                </mxCell>
                <mxCell id="115" style="edgeStyle=orthogonalEdgeStyle;rounded=0;html=1;endArrow=none;endFill=0;entryX=1;entryY=0.5;entryDx=0;entryDy=0;entryPerimeter=0;" parent="1" source="116" target="39" edge="1">
                    <mxGeometry relative="1" as="geometry">
                        <mxPoint x="877" y="500" as="targetPoint"/>
                        <Array as="points">
                            <mxPoint x="1027" y="500"/>
                            <mxPoint x="1027" y="256"/>
                        </Array>
                    </mxGeometry>
                </mxCell>
                <mxCell id="116" value="==" style="rounded=0;whiteSpace=wrap;html=1;fillColor=#B1DDF0;fontFamily=Courier New;fontSize=20;points=[[0,0,0,0,0],[0,0.15,0,0,0],[0,0.32,0,0,0],[0,0.45,0,0,0],[0,0.6,0,0,0],[0,0.75,0,0,0],[0,0.9,0,0,0],[0,1,0,0,0],[0.25,0,0,0,0],[0.25,1,0,0,0],[0.5,0,0,0,0],[0.5,1,0,0,0],[0.75,0,0,0,0],[0.75,1,0,0,0],[1,0,0,0,0],[1,0.25,0,0,0],[1,0.5,0,0,0],[1,0.75,0,0,0],[1,1,0,0,0]];" parent="1" vertex="1">
                    <mxGeometry x="747" y="470" width="80" height="60" as="geometry"/>
                </mxCell>
                <mxCell id="120" style="edgeStyle=orthogonalEdgeStyle;rounded=0;jumpStyle=arc;html=1;exitX=1;exitY=0.5;exitDx=0;exitDy=0;exitPerimeter=0;entryX=0;entryY=0.25;entryDx=0;entryDy=0;entryPerimeter=0;endArrow=none;endFill=0;" parent="1" source="15" target="111" edge="1">
                    <mxGeometry relative="1" as="geometry">
                        <Array as="points">
                            <mxPoint x="327" y="215"/>
                            <mxPoint x="327" y="340"/>
                            <mxPoint x="667" y="340"/>
                            <mxPoint x="667" y="350"/>
                        </Array>
                    </mxGeometry>
                </mxCell>
                <mxCell id="123" style="edgeStyle=orthogonalEdgeStyle;rounded=0;jumpStyle=arc;html=1;exitX=0;exitY=0.32;exitDx=0;exitDy=0;exitPerimeter=0;endArrow=none;endFill=0;" parent="1" source="122" edge="1">
                    <mxGeometry relative="1" as="geometry">
                        <mxPoint x="667" y="490" as="targetPoint"/>
                    </mxGeometry>
                </mxCell>
                <mxCell id="124" style="edgeStyle=orthogonalEdgeStyle;rounded=0;jumpStyle=arc;html=1;exitX=0;exitY=0.75;exitDx=0;exitDy=0;exitPerimeter=0;endArrow=none;endFill=0;" parent="1" source="122" edge="1">
                    <mxGeometry relative="1" as="geometry">
                        <mxPoint x="697" y="515" as="targetPoint"/>
                    </mxGeometry>
                </mxCell>
                <mxCell id="126" style="edgeStyle=orthogonalEdgeStyle;rounded=0;jumpStyle=arc;html=1;exitX=1;exitY=0.5;exitDx=0;exitDy=0;exitPerimeter=0;entryX=1;entryY=0.5;entryDx=0;entryDy=0;entryPerimeter=0;endArrow=none;endFill=0;" parent="1" source="122" target="33" edge="1">
                    <mxGeometry relative="1" as="geometry">
                        <Array as="points">
                            <mxPoint x="997" y="605"/>
                            <mxPoint x="997" y="196"/>
                        </Array>
                    </mxGeometry>
                </mxCell>
                <mxCell id="122" value="&amp;lt;" style="rounded=0;whiteSpace=wrap;html=1;fillColor=#B1DDF0;fontFamily=Courier New;fontSize=20;points=[[0,0,0,0,0],[0,0.15,0,0,0],[0,0.32,0,0,0],[0,0.45,0,0,0],[0,0.6,0,0,0],[0,0.75,0,0,0],[0,0.9,0,0,0],[0,1,0,0,0],[0.25,0,0,0,0],[0.25,1,0,0,0],[0.5,0,0,0,0],[0.5,1,0,0,0],[0.75,0,0,0,0],[0.75,1,0,0,0],[1,0,0,0,0],[1,0.25,0,0,0],[1,0.5,0,0,0],[1,0.75,0,0,0],[1,1,0,0,0]];" parent="1" vertex="1">
                    <mxGeometry x="747" y="575" width="80" height="60" as="geometry"/>
                </mxCell>
                <mxCell id="127" value="" style="triangle;whiteSpace=wrap;html=1;strokeColor=#000000;fillColor=#f8cecc;" parent="1" vertex="1">
                    <mxGeometry x="480" y="325" width="30" height="30" as="geometry"/>
                </mxCell>
                <mxCell id="128" value="" style="ellipse;whiteSpace=wrap;html=1;aspect=fixed;strokeColor=#000000;fillColor=#f8cecc;" parent="1" vertex="1">
                    <mxGeometry x="510" y="335" width="10" height="10" as="geometry"/>
                </mxCell>
                <mxCell id="132" value="" style="edgeStyle=orthogonalEdgeStyle;html=1;entryX=0;entryY=0.25;entryDx=0;entryDy=0;entryPerimeter=0;endArrow=none;endFill=0;rounded=0;" parent="1" target="131" edge="1">
                    <mxGeometry relative="1" as="geometry">
                        <mxPoint x="517" y="230" as="sourcePoint"/>
                        <mxPoint x="557" y="230" as="targetPoint"/>
                        <Array as="points"/>
                    </mxGeometry>
                </mxCell>
                <mxCell id="131" value="" style="shape=or;whiteSpace=wrap;html=1;fillColor=#f8cecc;strokeColor=#000000;" parent="1" vertex="1">
                    <mxGeometry x="510" y="210" width="30" height="40" as="geometry"/>
                </mxCell>
                <mxCell id="12" style="edgeStyle=orthogonalEdgeStyle;html=1;fontFamily=Courier New;fontSize=10;endArrow=none;endFill=0;rounded=0;entryX=0;entryY=0.25;entryDx=0;entryDy=0;entryPerimeter=0;elbow=vertical;jumpStyle=arc;" parent="1" source="13" target="131" edge="1">
                    <mxGeometry relative="1" as="geometry">
                        <mxPoint x="327" y="195" as="targetPoint"/>
                        <Array as="points">
                            <mxPoint x="327" y="195"/>
                            <mxPoint x="327" y="180"/>
                            <mxPoint x="497" y="180"/>
                            <mxPoint x="497" y="220"/>
                        </Array>
                    </mxGeometry>
                </mxCell>
                <mxCell id="130" style="edgeStyle=orthogonalEdgeStyle;rounded=0;jumpStyle=arc;html=1;exitX=0;exitY=0.25;exitDx=0;exitDy=0;exitPerimeter=0;endArrow=none;endFill=0;" parent="1" source="69" edge="1">
                    <mxGeometry relative="1" as="geometry">
                        <mxPoint x="907" y="605" as="targetPoint"/>
                        <mxPoint x="927" y="220" as="sourcePoint"/>
                        <Array as="points">
                            <mxPoint x="907" y="215"/>
                        </Array>
                    </mxGeometry>
                </mxCell>
                <mxCell id="36" style="edgeStyle=orthogonalEdgeStyle;rounded=0;html=1;strokeWidth=1;fontFamily=Courier New;fontSize=10;endArrow=none;endFill=0;exitX=1;exitY=0.5;exitDx=0;exitDy=0;exitPerimeter=0;jumpStyle=arc;" parent="1" source="37" edge="1">
                    <mxGeometry relative="1" as="geometry">
                        <mxPoint x="347" y="235" as="targetPoint"/>
                        <mxPoint x="1087" y="280" as="sourcePoint"/>
                        <Array as="points">
                            <mxPoint x="1027" y="236"/>
                            <mxPoint x="1027" y="165"/>
                            <mxPoint x="347" y="165"/>
                        </Array>
                    </mxGeometry>
                </mxCell>
            </root>
        </mxGraphModel>
    </diagram>
</mxfile>